<?xml version="1.0" encoding="utf-8"?>
<svg height="24" viewBox="0 0 24 24" width="24" xmlns="http://www.w3.org/2000/svg">
  <path d="M0 0h24v24H0z" fill="none"/>
  <path d="M 20.5 6 C 17.89 6.7 14.83 7 12 7 C 9.17 7 6.11 6.7 3.5 6 L 3 8 C 4.86 8.5 7 8.83 9 9 L 9 22 L 11 22 L 11 16 L 13 16 L 13 22 L 15 22 L 15 9 C 17 8.83 19.14 8.5 21 8 L 20.5 6 Z M 12 6 C 13.1 6 14 5.1 14 4 C 14 2.9 13.1 2 12 2 C 10.9 2 10 2.9 10 4 C 10 5.1 10.9 6 12 6 Z" transform="matrix(0.766045, 0.642787, -0.642787, 0.766045, 10.520914, -4.905984)"/>
  <path style="fill: rgb(216, 216, 216); stroke: rgb(0, 0, 0); stroke-linejoin: round; stroke-linecap: square;" d="M 3.051 2.174 L 2.811 7.277 L 6.262 8.278 L 7.689 13.146"/>
</svg>